<?xml version="1.0" standalone="no"?>
<!DOCTYPE svg PUBLIC "-//W3C//DTD SVG 20010904//EN"
 "http://www.w3.org/TR/2001/REC-SVG-20010904/DTD/svg10.dtd">
<svg version="1.0" xmlns="http://www.w3.org/2000/svg"
 width="240.000000pt" height="240.000000pt" viewBox="0 0 240.000000 240.000000"
 preserveAspectRatio="xMidYMid meet">

<g transform="translate(0.000000,240.000000) scale(0.100000,-0.100000)"
fill="#000000" stroke="none">
<path d="M996 2384 c-249 -45 -471 -166 -652 -355 -99 -104 -152 -181 -215
-313 -151 -316 -152 -689 -4 -1004 l46 -99 -82 -301 c-45 -166 -80 -304 -78
-307 3 -2 143 32 312 76 l307 81 92 -40 c165 -70 315 -102 483 -102 305 0 594
116 816 327 246 234 374 533 372 873 -1 313 -112 585 -327 809 -186 193 -405
311 -660 356 -109 19 -303 18 -410 -1z m454 -213 c314 -82 578 -321 685 -621
14 -41 33 -106 42 -145 18 -85 21 -287 4 -370 -79 -389 -353 -681 -739 -787
-64 -18 -105 -21 -242 -22 -151 0 -173 3 -255 27 -49 15 -133 49 -187 76 l-96
48 -179 -47 c-98 -26 -181 -45 -185 -41 -3 3 15 84 42 180 l48 173 -53 102
c-144 274 -160 556 -46 840 128 320 427 554 776 609 77 13 301 -1 385 -22z"/>
<path d="M734 1741 c-61 -37 -116 -132 -129 -224 -14 -102 38 -241 143 -382
175 -235 349 -369 587 -456 76 -27 104 -33 180 -33 75 0 97 3 135 23 66 34
108 68 125 102 24 45 37 127 24 150 -13 25 -256 141 -286 137 -13 -2 -46 -32
-80 -73 -33 -39 -68 -71 -80 -73 -25 -4 -124 44 -203 98 -62 42 -151 133 -197
200 -57 86 -57 83 -15 137 47 59 62 86 62 111 0 33 -100 266 -122 285 -28 23
-104 23 -144 -2z"/>
</g>
</svg>
